<svg xmlns="http://www.w3.org/2000/svg" xmlns:xlink="http://www.w3.org/1999/xlink">

  <symbol viewBox="0 0 76 76" id="next" fill="none">
    <g id="&#208;&#186;&#208;&#189;&#208;&#190;&#208;&#191;&#208;&#186;&#208;&#176; &#209;&#129;&#209;&#130;&#209;&#128;&#208;&#181;&#208;&#187;&#208;&#186;&#208;&#176;">
    <circle id="Ellipse 10" cx="38" cy="38" r="37.75" stroke-width="0.5"/>
    <path id="Vector" d="M59.5844 38.0001H16.0757M40.8322 57.092C40.8322 57.092 42.2682 50.0428 47.5715 44.7395C52.8748 39.4362 59.9241 38.0002 59.9241 38.0002C59.9241 38.0002 53.2393 36.2651 47.6234 31.3563C42.0074 26.4475 39.956 19.7844 39.956 19.7844" />
    </g>
  </symbol>
  <symbol viewBox="0 0 76 76" id="prev" fill="none">
    <g id="&#208;&#186;&#208;&#189;&#208;&#190;&#208;&#191;&#208;&#186;&#208;&#176; &#209;&#129;&#209;&#130;&#209;&#128;&#208;&#181;&#208;&#187;&#208;&#186;&#208;&#176;">
    <circle id="Ellipse 10" cx="38" cy="38" r="37.75" stroke-width="0.5"/>
    <path id="Vector" d="M16.4154 38.0001H59.9241M35.1676 18.9082C35.1676 18.9082 33.7315 25.9574 28.4282 31.2607C23.1249 36.564 16.0757 38.0001 16.0757 38.0001C16.0757 38.0001 22.7605 39.7351 28.3764 44.6439C33.9923 49.5528 36.0437 56.2158 36.0437 56.2158" />
    </g>
  </symbol>
</svg>
